# xmcd
#
# Track frame offsets:
#	150
#	14309
#	29901
#	46787
#	63395
#	79458
#	98114
#	114418
#	132789
#	148417
#	158399
#	177996
#
# Disc length: 2545 seconds
# Revision: 0
# Processed by: cddbd v1.5.2PL0 Copyright (c) Steve Scherf et al.
# Submitted via: dBpowerAMP V12.0
#
DISCID=a009ef0c
DTITLE=Larry Flint - Ghost Of The Railroad
DYEAR=2010
DGENRE=Country
TTITLE0=Ghost Of The Railroad
TTITLE1=Junior
TTITLE2=Spent Last Year (In a Barroom)
TTITLE3=Quit Leaving Me And Go
TTITLE4=Demons
TTITLE5=Take Another Look (Before You Leave)
TTITLE6=Honky Tonks and Bars
TTITLE7=Three Little Words Too Late
TTITLE8=Another Way to Cry
TTITLE9=Take Some Time
TTITLE10=Her Arms Can't Hold
TTITLE11=Fall In Love
EXTD=
EXTT0=
EXTT1=
EXTT2=
EXTT3=
EXTT4=
EXTT5=
EXTT6=
EXTT7=
EXTT8=
EXTT9=
EXTT10=
EXTT11=
PLAYORDER=
